<mxfile host="Electron" modified="2023-07-17T10:29:35.149Z" agent="Mozilla/5.0 (Windows NT 10.0; Win64; x64) AppleWebKit/537.36 (KHTML, like Gecko) draw.io/21.5.1 Chrome/112.0.5615.204 Electron/24.6.0 Safari/537.36" etag="9D_-OlxxU6MmS-XSsjiJ" version="21.5.1" type="device" pages="4">
  <diagram name="SP Architecture" id="OPLEin4jqRwIfvatx3rt">
    <mxGraphModel dx="3585" dy="2195" grid="1" gridSize="10" guides="1" tooltips="1" connect="1" arrows="1" fold="1" page="1" pageScale="1" pageWidth="2336" pageHeight="1654" math="0" shadow="0">
      <root>
        <mxCell id="kk6o0C8mNVQhLtGsbwrY-0" />
        <mxCell id="kk6o0C8mNVQhLtGsbwrY-1" parent="kk6o0C8mNVQhLtGsbwrY-0" />
        <mxCell id="kk6o0C8mNVQhLtGsbwrY-3" value="&lt;font style=&quot;font-size: 36px;&quot;&gt;Specific Provisioner&lt;br&gt;&lt;/font&gt;" style="rounded=1;whiteSpace=wrap;html=1;hachureGap=4;fontFamily=Nunito;fontSize=20;verticalAlign=top;fillColor=#99CCFF;strokeColor=#3399FF;fontSource=https%3A%2F%2Ffonts.googleapis.com%2Fcss%3Ffamily%3DNunito;" parent="kk6o0C8mNVQhLtGsbwrY-1" vertex="1">
          <mxGeometry x="487" y="302" width="1362" height="1050" as="geometry" />
        </mxCell>
        <mxCell id="kk6o0C8mNVQhLtGsbwrY-30" value="" style="group;fontFamily=Nunito;fontSource=https%3A%2F%2Ffonts.googleapis.com%2Fcss%3Ffamily%3DNunito;" parent="kk6o0C8mNVQhLtGsbwrY-1" vertex="1" connectable="0">
          <mxGeometry x="40" y="747" width="300" height="160" as="geometry" />
        </mxCell>
        <mxCell id="kk6o0C8mNVQhLtGsbwrY-31" value="&lt;font style=&quot;font-size: 36px;&quot;&gt;Provisioning&lt;br&gt;Coordinator&lt;/font&gt;" style="rounded=1;whiteSpace=wrap;html=1;hachureGap=4;fontFamily=Nunito;fontSize=20;verticalAlign=middle;fillColor=#e1d5e7;strokeColor=#9673a6;fontSource=https%3A%2F%2Ffonts.googleapis.com%2Fcss%3Ffamily%3DNunito;" parent="kk6o0C8mNVQhLtGsbwrY-30" vertex="1">
          <mxGeometry width="300" height="160" as="geometry" />
        </mxCell>
        <mxCell id="YXN7RrhBJDE_nyWWqLzF-0" value="" style="endArrow=none;dashed=1;html=1;rounded=0;entryX=0.325;entryY=1.003;entryDx=0;entryDy=0;exitX=0.325;exitY=0.003;exitDx=0;exitDy=0;exitPerimeter=0;entryPerimeter=0;" parent="kk6o0C8mNVQhLtGsbwrY-1" source="kk6o0C8mNVQhLtGsbwrY-3" target="kk6o0C8mNVQhLtGsbwrY-3" edge="1">
          <mxGeometry width="50" height="50" relative="1" as="geometry">
            <mxPoint x="980" y="780" as="sourcePoint" />
            <mxPoint x="1030" y="730" as="targetPoint" />
          </mxGeometry>
        </mxCell>
        <mxCell id="YXN7RrhBJDE_nyWWqLzF-2" value="" style="endArrow=none;dashed=1;html=1;rounded=0;entryX=0.663;entryY=0.993;entryDx=0;entryDy=0;exitX=0.665;exitY=0.008;exitDx=0;exitDy=0;exitPerimeter=0;entryPerimeter=0;" parent="kk6o0C8mNVQhLtGsbwrY-1" source="kk6o0C8mNVQhLtGsbwrY-3" target="kk6o0C8mNVQhLtGsbwrY-3" edge="1">
          <mxGeometry width="50" height="50" relative="1" as="geometry">
            <mxPoint x="1178" y="312" as="sourcePoint" />
            <mxPoint x="1178" y="1362" as="targetPoint" />
          </mxGeometry>
        </mxCell>
        <mxCell id="YXN7RrhBJDE_nyWWqLzF-3" value="/validate" style="text;strokeColor=none;fillColor=none;html=1;fontSize=23;fontStyle=1;verticalAlign=middle;align=center;" parent="kk6o0C8mNVQhLtGsbwrY-1" vertex="1">
          <mxGeometry x="543.5" y="487" width="340" height="40" as="geometry" />
        </mxCell>
        <mxCell id="YXN7RrhBJDE_nyWWqLzF-4" value="&lt;code style=&quot;font-size: 23px;&quot;&gt;/provision/{token}/status&lt;/code&gt;" style="text;strokeColor=none;fillColor=none;html=1;fontSize=23;fontStyle=1;verticalAlign=middle;align=center;" parent="kk6o0C8mNVQhLtGsbwrY-1" vertex="1">
          <mxGeometry x="560" y="814" width="340" height="40" as="geometry" />
        </mxCell>
        <mxCell id="YXN7RrhBJDE_nyWWqLzF-5" value="/unprovision" style="text;strokeColor=none;fillColor=none;html=1;fontSize=23;fontStyle=1;verticalAlign=middle;align=center;" parent="kk6o0C8mNVQhLtGsbwrY-1" vertex="1">
          <mxGeometry x="543.5" y="967" width="340" height="40" as="geometry" />
        </mxCell>
        <mxCell id="YXN7RrhBJDE_nyWWqLzF-6" value="/provision" style="text;strokeColor=none;fillColor=none;html=1;fontSize=23;fontStyle=1;verticalAlign=middle;align=center;" parent="kk6o0C8mNVQhLtGsbwrY-1" vertex="1">
          <mxGeometry x="543.5" y="647" width="340" height="40" as="geometry" />
        </mxCell>
        <mxCell id="YXN7RrhBJDE_nyWWqLzF-7" value="/updateacl" style="text;strokeColor=none;fillColor=none;html=1;fontSize=23;fontStyle=1;verticalAlign=middle;align=center;" parent="kk6o0C8mNVQhLtGsbwrY-1" vertex="1">
          <mxGeometry x="543.5" y="1127" width="340" height="40" as="geometry" />
        </mxCell>
        <mxCell id="YXN7RrhBJDE_nyWWqLzF-8" value="API" style="text;strokeColor=none;fillColor=none;html=1;fontSize=30;fontStyle=1;verticalAlign=middle;align=center;" parent="kk6o0C8mNVQhLtGsbwrY-1" vertex="1">
          <mxGeometry x="600" y="1312" width="227" height="40" as="geometry" />
        </mxCell>
        <mxCell id="YXN7RrhBJDE_nyWWqLzF-9" value="" style="group;fontFamily=Nunito;fontSource=https%3A%2F%2Ffonts.googleapis.com%2Fcss%3Ffamily%3DNunito;fillColor=none;strokeColor=none;" parent="kk6o0C8mNVQhLtGsbwrY-1" vertex="1" connectable="0">
          <mxGeometry x="1033" y="380" width="270" height="130" as="geometry" />
        </mxCell>
        <mxCell id="YXN7RrhBJDE_nyWWqLzF-10" value="&lt;span style=&quot;font-size: 36px;&quot;&gt;Validate&lt;br&gt;service&lt;/span&gt;" style="rounded=1;whiteSpace=wrap;html=1;hachureGap=4;fontFamily=Nunito;fontSize=20;verticalAlign=middle;fillColor=#6666FF;strokeColor=#3333FF;fontSource=https%3A%2F%2Ffonts.googleapis.com%2Fcss%3Ffamily%3DNunito;" parent="YXN7RrhBJDE_nyWWqLzF-9" vertex="1">
          <mxGeometry width="270" height="130" as="geometry" />
        </mxCell>
        <mxCell id="YXN7RrhBJDE_nyWWqLzF-11" value="" style="group;fontFamily=Nunito;fontSource=https%3A%2F%2Ffonts.googleapis.com%2Fcss%3Ffamily%3DNunito;fillColor=none;strokeColor=none;" parent="kk6o0C8mNVQhLtGsbwrY-1" vertex="1" connectable="0">
          <mxGeometry x="1033" y="762" width="270" height="130" as="geometry" />
        </mxCell>
        <mxCell id="YXN7RrhBJDE_nyWWqLzF-12" value="&lt;span style=&quot;font-size: 36px;&quot;&gt;Status&lt;br&gt;service&lt;/span&gt;" style="rounded=1;whiteSpace=wrap;html=1;hachureGap=4;fontFamily=Nunito;fontSize=20;verticalAlign=middle;fillColor=#6666FF;strokeColor=#3333FF;fontSource=https%3A%2F%2Ffonts.googleapis.com%2Fcss%3Ffamily%3DNunito;" parent="YXN7RrhBJDE_nyWWqLzF-11" vertex="1">
          <mxGeometry width="270" height="130" as="geometry" />
        </mxCell>
        <mxCell id="YXN7RrhBJDE_nyWWqLzF-13" value="" style="group;fontFamily=Nunito;fontSource=https%3A%2F%2Ffonts.googleapis.com%2Fcss%3Ffamily%3DNunito;fillColor=none;strokeColor=none;" parent="kk6o0C8mNVQhLtGsbwrY-1" vertex="1" connectable="0">
          <mxGeometry x="1033" y="1075" width="270" height="130" as="geometry" />
        </mxCell>
        <mxCell id="YXN7RrhBJDE_nyWWqLzF-14" value="&lt;span style=&quot;font-size: 36px;&quot;&gt;Updateacl&lt;br&gt;service&lt;/span&gt;" style="rounded=1;whiteSpace=wrap;html=1;hachureGap=4;fontFamily=Nunito;fontSize=20;verticalAlign=middle;fillColor=#6666FF;strokeColor=#3333FF;fontSource=https%3A%2F%2Ffonts.googleapis.com%2Fcss%3Ffamily%3DNunito;" parent="YXN7RrhBJDE_nyWWqLzF-13" vertex="1">
          <mxGeometry width="270" height="130" as="geometry" />
        </mxCell>
        <mxCell id="YXN7RrhBJDE_nyWWqLzF-15" value="" style="group;fontFamily=Nunito;fontSource=https%3A%2F%2Ffonts.googleapis.com%2Fcss%3Ffamily%3DNunito;fillColor=none;strokeColor=none;" parent="kk6o0C8mNVQhLtGsbwrY-1" vertex="1" connectable="0">
          <mxGeometry x="1033" y="915" width="270" height="130" as="geometry" />
        </mxCell>
        <mxCell id="YXN7RrhBJDE_nyWWqLzF-16" value="&lt;span style=&quot;font-size: 36px;&quot;&gt;Unprovision&lt;br&gt;service&lt;/span&gt;" style="rounded=1;whiteSpace=wrap;html=1;hachureGap=4;fontFamily=Nunito;fontSize=20;verticalAlign=middle;fillColor=#6666FF;strokeColor=#3333FF;fontSource=https%3A%2F%2Ffonts.googleapis.com%2Fcss%3Ffamily%3DNunito;" parent="YXN7RrhBJDE_nyWWqLzF-15" vertex="1">
          <mxGeometry width="270" height="130" as="geometry" />
        </mxCell>
        <mxCell id="YXN7RrhBJDE_nyWWqLzF-17" value="" style="group;fontFamily=Nunito;fontSource=https%3A%2F%2Ffonts.googleapis.com%2Fcss%3Ffamily%3DNunito;fillColor=none;strokeColor=none;" parent="kk6o0C8mNVQhLtGsbwrY-1" vertex="1" connectable="0">
          <mxGeometry x="1033" y="575" width="270" height="130" as="geometry" />
        </mxCell>
        <mxCell id="YXN7RrhBJDE_nyWWqLzF-18" value="&lt;span style=&quot;font-size: 36px;&quot;&gt;Provision&lt;br&gt;service&lt;/span&gt;" style="rounded=1;whiteSpace=wrap;html=1;hachureGap=4;fontFamily=Nunito;fontSize=20;verticalAlign=middle;fillColor=#6666FF;strokeColor=#3333FF;fontSource=https%3A%2F%2Ffonts.googleapis.com%2Fcss%3Ffamily%3DNunito;" parent="YXN7RrhBJDE_nyWWqLzF-17" vertex="1">
          <mxGeometry width="270" height="130" as="geometry" />
        </mxCell>
        <mxCell id="YXN7RrhBJDE_nyWWqLzF-20" value="FEATURES" style="text;strokeColor=none;fillColor=none;html=1;fontSize=30;fontStyle=1;verticalAlign=middle;align=center;" parent="kk6o0C8mNVQhLtGsbwrY-1" vertex="1">
          <mxGeometry x="1054.5" y="1312" width="227" height="40" as="geometry" />
        </mxCell>
        <mxCell id="YXN7RrhBJDE_nyWWqLzF-34" value="" style="group;fontFamily=Nunito;fontSource=https%3A%2F%2Ffonts.googleapis.com%2Fcss%3Ffamily%3DNunito;verticalAlign=top;" parent="kk6o0C8mNVQhLtGsbwrY-1" vertex="1" connectable="0">
          <mxGeometry x="1980" y="677" width="300" height="300" as="geometry" />
        </mxCell>
        <mxCell id="YXN7RrhBJDE_nyWWqLzF-35" value="&lt;span style=&quot;font-size: 36px;&quot;&gt;Destination infrastructure&lt;/span&gt;" style="rounded=1;whiteSpace=wrap;html=1;hachureGap=4;fontFamily=Nunito;fontSize=20;verticalAlign=top;fillColor=#00CC00;strokeColor=#00CC00;fontSource=https%3A%2F%2Ffonts.googleapis.com%2Fcss%3Ffamily%3DNunito;" parent="YXN7RrhBJDE_nyWWqLzF-34" vertex="1">
          <mxGeometry width="300" height="300" as="geometry" />
        </mxCell>
        <mxCell id="tf7zwTPdZ2Y9vwUqu4Mj-0" value="&lt;font style=&quot;font-size: 24px;&quot;&gt;Component&lt;/font&gt;" style="rounded=1;whiteSpace=wrap;html=1;strokeWidth=2;fillWeight=4;hachureGap=8;hachureAngle=45;fillColor=#1ba1e2;" parent="YXN7RrhBJDE_nyWWqLzF-34" vertex="1">
          <mxGeometry x="70" y="133" width="160" height="120" as="geometry" />
        </mxCell>
        <mxCell id="YXN7RrhBJDE_nyWWqLzF-38" style="edgeStyle=orthogonalEdgeStyle;rounded=0;hachureGap=4;orthogonalLoop=1;jettySize=auto;html=1;exitX=1;exitY=0.5;exitDx=0;exitDy=0;fontFamily=Architects Daughter;fontSource=https%3A%2F%2Ffonts.googleapis.com%2Fcss%3Ffamily%3DArchitects%2BDaughter;fontSize=16;curved=1;entryX=0;entryY=0.5;entryDx=0;entryDy=0;" parent="kk6o0C8mNVQhLtGsbwrY-1" source="kk6o0C8mNVQhLtGsbwrY-3" target="tf7zwTPdZ2Y9vwUqu4Mj-0" edge="1">
          <mxGeometry relative="1" as="geometry">
            <mxPoint x="1960" y="453" as="sourcePoint" />
            <mxPoint x="2127" y="640" as="targetPoint" />
          </mxGeometry>
        </mxCell>
        <mxCell id="YXN7RrhBJDE_nyWWqLzF-41" value="" style="edgeStyle=orthogonalEdgeStyle;rounded=0;hachureGap=4;orthogonalLoop=1;jettySize=auto;html=1;exitX=1;exitY=0.5;exitDx=0;exitDy=0;fontFamily=Architects Daughter;fontSource=https%3A%2F%2Ffonts.googleapis.com%2Fcss%3Ffamily%3DArchitects%2BDaughter;fontSize=16;curved=1;entryX=0;entryY=0.5;entryDx=0;entryDy=0;" parent="kk6o0C8mNVQhLtGsbwrY-1" source="kk6o0C8mNVQhLtGsbwrY-31" target="YXN7RrhBJDE_nyWWqLzF-40" edge="1">
          <mxGeometry relative="1" as="geometry">
            <mxPoint x="320" y="640" as="sourcePoint" />
            <mxPoint x="487" y="827" as="targetPoint" />
          </mxGeometry>
        </mxCell>
        <mxCell id="YXN7RrhBJDE_nyWWqLzF-40" value="" style="html=1;dashed=0;whitespace=wrap;fillColor=#2875E2;strokeColor=#ffffff;points=[[0.005,0.63,0],[0.1,0.2,0],[0.9,0.2,0],[0.5,0,0],[0.995,0.63,0],[0.72,0.99,0],[0.5,1,0],[0.28,0.99,0]];verticalLabelPosition=bottom;align=center;verticalAlign=top;shape=mxgraph.kubernetes.icon;prIcon=api;aspect=fixed;" parent="kk6o0C8mNVQhLtGsbwrY-1" vertex="1">
          <mxGeometry x="440" y="779" width="100" height="96" as="geometry" />
        </mxCell>
        <mxCell id="piytEgbVbfEZn6vWXNJU-0" value="DOMAIN" style="text;strokeColor=none;fillColor=none;html=1;fontSize=30;fontStyle=1;verticalAlign=middle;align=center;" parent="kk6o0C8mNVQhLtGsbwrY-1" vertex="1">
          <mxGeometry x="1490" y="1312" width="227" height="40" as="geometry" />
        </mxCell>
        <mxCell id="piytEgbVbfEZn6vWXNJU-1" value="" style="group;fontFamily=Nunito;fontSource=https%3A%2F%2Ffonts.googleapis.com%2Fcss%3Ffamily%3DNunito;fillColor=none;strokeColor=none;" parent="kk6o0C8mNVQhLtGsbwrY-1" vertex="1" connectable="0">
          <mxGeometry x="1497" y="530" width="220" height="110" as="geometry" />
        </mxCell>
        <mxCell id="piytEgbVbfEZn6vWXNJU-2" value="&lt;span style=&quot;font-size: 36px;&quot;&gt;Validation&lt;br&gt;logic&lt;/span&gt;" style="rounded=1;whiteSpace=wrap;html=1;hachureGap=4;fontFamily=Nunito;fontSize=20;verticalAlign=middle;fillColor=#FF3399;strokeColor=#FF0080;fontSource=https%3A%2F%2Ffonts.googleapis.com%2Fcss%3Ffamily%3DNunito;" parent="piytEgbVbfEZn6vWXNJU-1" vertex="1">
          <mxGeometry width="220" height="110" as="geometry" />
        </mxCell>
        <mxCell id="piytEgbVbfEZn6vWXNJU-3" value="" style="group;fontFamily=Nunito;fontSource=https%3A%2F%2Ffonts.googleapis.com%2Fcss%3Ffamily%3DNunito;fillColor=none;strokeColor=none;" parent="kk6o0C8mNVQhLtGsbwrY-1" vertex="1" connectable="0">
          <mxGeometry x="1497" y="847" width="220" height="110" as="geometry" />
        </mxCell>
        <mxCell id="piytEgbVbfEZn6vWXNJU-4" value="&lt;span style=&quot;font-size: 36px;&quot;&gt;Status&lt;br&gt;logic&lt;/span&gt;" style="rounded=1;whiteSpace=wrap;html=1;hachureGap=4;fontFamily=Nunito;fontSize=20;verticalAlign=middle;fillColor=#FF3399;strokeColor=#FF0080;fontSource=https%3A%2F%2Ffonts.googleapis.com%2Fcss%3Ffamily%3DNunito;" parent="piytEgbVbfEZn6vWXNJU-3" vertex="1">
          <mxGeometry width="220" height="110" as="geometry" />
        </mxCell>
        <mxCell id="piytEgbVbfEZn6vWXNJU-5" value="" style="group;fontFamily=Nunito;fontSource=https%3A%2F%2Ffonts.googleapis.com%2Fcss%3Ffamily%3DNunito;fillColor=none;strokeColor=none;" parent="kk6o0C8mNVQhLtGsbwrY-1" vertex="1" connectable="0">
          <mxGeometry x="1497" y="1140" width="220" height="110" as="geometry" />
        </mxCell>
        <mxCell id="piytEgbVbfEZn6vWXNJU-6" value="&lt;span style=&quot;font-size: 36px;&quot;&gt;Updateacl&lt;br&gt;logic&lt;/span&gt;" style="rounded=1;whiteSpace=wrap;html=1;hachureGap=4;fontFamily=Nunito;fontSize=20;verticalAlign=middle;fillColor=#FF3399;strokeColor=#FF0080;fontSource=https%3A%2F%2Ffonts.googleapis.com%2Fcss%3Ffamily%3DNunito;" parent="piytEgbVbfEZn6vWXNJU-5" vertex="1">
          <mxGeometry width="220" height="110" as="geometry" />
        </mxCell>
        <mxCell id="piytEgbVbfEZn6vWXNJU-7" value="" style="group;fontFamily=Nunito;fontSource=https%3A%2F%2Ffonts.googleapis.com%2Fcss%3Ffamily%3DNunito;fillColor=none;strokeColor=none;" parent="kk6o0C8mNVQhLtGsbwrY-1" vertex="1" connectable="0">
          <mxGeometry x="1497" y="1000" width="220" height="110" as="geometry" />
        </mxCell>
        <mxCell id="piytEgbVbfEZn6vWXNJU-8" value="&lt;span style=&quot;font-size: 36px;&quot;&gt;Unprovision&lt;br&gt;logic&lt;/span&gt;" style="rounded=1;whiteSpace=wrap;html=1;hachureGap=4;fontFamily=Nunito;fontSize=20;verticalAlign=middle;fillColor=#FF3399;strokeColor=#FF0080;fontSource=https%3A%2F%2Ffonts.googleapis.com%2Fcss%3Ffamily%3DNunito;" parent="piytEgbVbfEZn6vWXNJU-7" vertex="1">
          <mxGeometry width="220" height="110" as="geometry" />
        </mxCell>
        <mxCell id="piytEgbVbfEZn6vWXNJU-9" value="" style="group;fontFamily=Nunito;fontSource=https%3A%2F%2Ffonts.googleapis.com%2Fcss%3Ffamily%3DNunito;fillColor=none;strokeColor=none;" parent="kk6o0C8mNVQhLtGsbwrY-1" vertex="1" connectable="0">
          <mxGeometry x="1497" y="697" width="220" height="110" as="geometry" />
        </mxCell>
        <mxCell id="piytEgbVbfEZn6vWXNJU-10" value="&lt;span style=&quot;font-size: 36px;&quot;&gt;Provision&lt;br&gt;logic&lt;/span&gt;" style="rounded=1;whiteSpace=wrap;html=1;hachureGap=4;fontFamily=Nunito;fontSize=20;verticalAlign=middle;fillColor=#FF3399;strokeColor=#FF0080;fontSource=https%3A%2F%2Ffonts.googleapis.com%2Fcss%3Ffamily%3DNunito;" parent="piytEgbVbfEZn6vWXNJU-9" vertex="1">
          <mxGeometry width="220" height="110" as="geometry" />
        </mxCell>
        <mxCell id="piytEgbVbfEZn6vWXNJU-11" value="" style="group;fontFamily=Nunito;fontSource=https%3A%2F%2Ffonts.googleapis.com%2Fcss%3Ffamily%3DNunito;fillColor=none;strokeColor=none;" parent="kk6o0C8mNVQhLtGsbwrY-1" vertex="1" connectable="0">
          <mxGeometry x="1490" y="380" width="220" height="110" as="geometry" />
        </mxCell>
        <mxCell id="piytEgbVbfEZn6vWXNJU-12" value="&lt;span style=&quot;font-size: 36px;&quot;&gt;Parsing&lt;br&gt;logic&lt;/span&gt;" style="rounded=1;whiteSpace=wrap;html=1;hachureGap=4;fontFamily=Nunito;fontSize=20;verticalAlign=middle;fillColor=#FF3399;strokeColor=#FF0080;fontSource=https%3A%2F%2Ffonts.googleapis.com%2Fcss%3Ffamily%3DNunito;" parent="piytEgbVbfEZn6vWXNJU-11" vertex="1">
          <mxGeometry width="220" height="110" as="geometry" />
        </mxCell>
      </root>
    </mxGraphModel>
  </diagram>
  <diagram name="SP Architecture with TF" id="wcLab1-kJcoQv8YkCCun">
    <mxGraphModel dx="2868" dy="1756" grid="1" gridSize="10" guides="1" tooltips="1" connect="1" arrows="1" fold="1" page="1" pageScale="1" pageWidth="2336" pageHeight="1654" math="0" shadow="0">
      <root>
        <mxCell id="71I1blL-DGqBybGwyrJa-0" />
        <mxCell id="71I1blL-DGqBybGwyrJa-1" parent="71I1blL-DGqBybGwyrJa-0" />
        <mxCell id="71I1blL-DGqBybGwyrJa-2" value="&lt;font style=&quot;font-size: 36px;&quot;&gt;Specific Provisioner&lt;br&gt;&lt;/font&gt;" style="rounded=1;whiteSpace=wrap;html=1;hachureGap=4;fontFamily=Nunito;fontSize=20;verticalAlign=top;fillColor=#99CCFF;strokeColor=#3399FF;fontSource=https%3A%2F%2Ffonts.googleapis.com%2Fcss%3Ffamily%3DNunito;" parent="71I1blL-DGqBybGwyrJa-1" vertex="1">
          <mxGeometry x="487" y="302" width="1362" height="1050" as="geometry" />
        </mxCell>
        <mxCell id="71I1blL-DGqBybGwyrJa-3" value="" style="group;fontFamily=Nunito;fontSource=https%3A%2F%2Ffonts.googleapis.com%2Fcss%3Ffamily%3DNunito;" parent="71I1blL-DGqBybGwyrJa-1" vertex="1" connectable="0">
          <mxGeometry x="40" y="747" width="300" height="160" as="geometry" />
        </mxCell>
        <mxCell id="71I1blL-DGqBybGwyrJa-4" value="&lt;font style=&quot;font-size: 36px;&quot;&gt;Provisioning&lt;br&gt;Coordinator&lt;/font&gt;" style="rounded=1;whiteSpace=wrap;html=1;hachureGap=4;fontFamily=Nunito;fontSize=20;verticalAlign=middle;fillColor=#e1d5e7;strokeColor=#9673a6;fontSource=https%3A%2F%2Ffonts.googleapis.com%2Fcss%3Ffamily%3DNunito;" parent="71I1blL-DGqBybGwyrJa-3" vertex="1">
          <mxGeometry width="300" height="160" as="geometry" />
        </mxCell>
        <mxCell id="71I1blL-DGqBybGwyrJa-5" value="" style="endArrow=none;dashed=1;html=1;rounded=0;entryX=0.25;entryY=1;entryDx=0;entryDy=0;exitX=0.25;exitY=0;exitDx=0;exitDy=0;" parent="71I1blL-DGqBybGwyrJa-1" source="71I1blL-DGqBybGwyrJa-2" target="71I1blL-DGqBybGwyrJa-2" edge="1">
          <mxGeometry width="50" height="50" relative="1" as="geometry">
            <mxPoint x="980" y="780" as="sourcePoint" />
            <mxPoint x="1030" y="730" as="targetPoint" />
          </mxGeometry>
        </mxCell>
        <mxCell id="71I1blL-DGqBybGwyrJa-6" value="" style="endArrow=none;dashed=1;html=1;rounded=0;entryX=0.5;entryY=1;entryDx=0;entryDy=0;exitX=0.5;exitY=0;exitDx=0;exitDy=0;" parent="71I1blL-DGqBybGwyrJa-1" source="71I1blL-DGqBybGwyrJa-2" target="71I1blL-DGqBybGwyrJa-2" edge="1">
          <mxGeometry width="50" height="50" relative="1" as="geometry">
            <mxPoint x="818" y="312" as="sourcePoint" />
            <mxPoint x="818" y="1362" as="targetPoint" />
          </mxGeometry>
        </mxCell>
        <mxCell id="71I1blL-DGqBybGwyrJa-7" value="" style="endArrow=none;dashed=1;html=1;rounded=0;entryX=0.75;entryY=1;entryDx=0;entryDy=0;exitX=0.75;exitY=0;exitDx=0;exitDy=0;" parent="71I1blL-DGqBybGwyrJa-1" source="71I1blL-DGqBybGwyrJa-2" target="71I1blL-DGqBybGwyrJa-2" edge="1">
          <mxGeometry width="50" height="50" relative="1" as="geometry">
            <mxPoint x="1178" y="312" as="sourcePoint" />
            <mxPoint x="1178" y="1362" as="targetPoint" />
          </mxGeometry>
        </mxCell>
        <mxCell id="71I1blL-DGqBybGwyrJa-8" value="/validate" style="text;strokeColor=none;fillColor=none;html=1;fontSize=18;fontStyle=1;verticalAlign=middle;align=center;" parent="71I1blL-DGqBybGwyrJa-1" vertex="1">
          <mxGeometry x="487" y="480" width="340" height="40" as="geometry" />
        </mxCell>
        <mxCell id="71I1blL-DGqBybGwyrJa-9" value="&lt;code style=&quot;font-size: 18px;&quot;&gt;/provision/{token}/status&lt;/code&gt;" style="text;strokeColor=none;fillColor=none;html=1;fontSize=18;fontStyle=1;verticalAlign=middle;align=center;" parent="71I1blL-DGqBybGwyrJa-1" vertex="1">
          <mxGeometry x="510" y="807" width="340" height="40" as="geometry" />
        </mxCell>
        <mxCell id="71I1blL-DGqBybGwyrJa-10" value="/unprovision" style="text;strokeColor=none;fillColor=none;html=1;fontSize=18;fontStyle=1;verticalAlign=middle;align=center;" parent="71I1blL-DGqBybGwyrJa-1" vertex="1">
          <mxGeometry x="487" y="960" width="340" height="40" as="geometry" />
        </mxCell>
        <mxCell id="71I1blL-DGqBybGwyrJa-11" value="/provision" style="text;strokeColor=none;fillColor=none;html=1;fontSize=18;fontStyle=1;verticalAlign=middle;align=center;" parent="71I1blL-DGqBybGwyrJa-1" vertex="1">
          <mxGeometry x="487" y="640" width="340" height="40" as="geometry" />
        </mxCell>
        <mxCell id="71I1blL-DGqBybGwyrJa-12" value="/updateacl" style="text;strokeColor=none;fillColor=none;html=1;fontSize=18;fontStyle=1;verticalAlign=middle;align=center;" parent="71I1blL-DGqBybGwyrJa-1" vertex="1">
          <mxGeometry x="487" y="1120" width="340" height="40" as="geometry" />
        </mxCell>
        <mxCell id="71I1blL-DGqBybGwyrJa-13" value="API" style="text;strokeColor=none;fillColor=none;html=1;fontSize=30;fontStyle=1;verticalAlign=middle;align=center;" parent="71I1blL-DGqBybGwyrJa-1" vertex="1">
          <mxGeometry x="600" y="1312" width="227" height="40" as="geometry" />
        </mxCell>
        <mxCell id="71I1blL-DGqBybGwyrJa-14" value="" style="group;fontFamily=Nunito;fontSource=https%3A%2F%2Ffonts.googleapis.com%2Fcss%3Ffamily%3DNunito;fillColor=none;strokeColor=none;" parent="71I1blL-DGqBybGwyrJa-1" vertex="1" connectable="0">
          <mxGeometry x="870" y="380" width="270" height="130" as="geometry" />
        </mxCell>
        <mxCell id="71I1blL-DGqBybGwyrJa-15" value="&lt;span style=&quot;font-size: 36px;&quot;&gt;Validate&lt;br&gt;service&lt;/span&gt;" style="rounded=1;whiteSpace=wrap;html=1;hachureGap=4;fontFamily=Nunito;fontSize=20;verticalAlign=middle;fillColor=#6666FF;strokeColor=#3333FF;fontSource=https%3A%2F%2Ffonts.googleapis.com%2Fcss%3Ffamily%3DNunito;" parent="71I1blL-DGqBybGwyrJa-14" vertex="1">
          <mxGeometry width="270" height="130" as="geometry" />
        </mxCell>
        <mxCell id="71I1blL-DGqBybGwyrJa-16" value="" style="group;fontFamily=Nunito;fontSource=https%3A%2F%2Ffonts.googleapis.com%2Fcss%3Ffamily%3DNunito;fillColor=none;strokeColor=none;" parent="71I1blL-DGqBybGwyrJa-1" vertex="1" connectable="0">
          <mxGeometry x="870" y="762" width="270" height="130" as="geometry" />
        </mxCell>
        <mxCell id="71I1blL-DGqBybGwyrJa-17" value="&lt;span style=&quot;font-size: 36px;&quot;&gt;Status&lt;br&gt;service&lt;/span&gt;" style="rounded=1;whiteSpace=wrap;html=1;hachureGap=4;fontFamily=Nunito;fontSize=20;verticalAlign=middle;fillColor=#6666FF;strokeColor=#3333FF;fontSource=https%3A%2F%2Ffonts.googleapis.com%2Fcss%3Ffamily%3DNunito;" parent="71I1blL-DGqBybGwyrJa-16" vertex="1">
          <mxGeometry width="270" height="130" as="geometry" />
        </mxCell>
        <mxCell id="71I1blL-DGqBybGwyrJa-18" value="" style="group;fontFamily=Nunito;fontSource=https%3A%2F%2Ffonts.googleapis.com%2Fcss%3Ffamily%3DNunito;fillColor=none;strokeColor=none;" parent="71I1blL-DGqBybGwyrJa-1" vertex="1" connectable="0">
          <mxGeometry x="870" y="1075" width="270" height="130" as="geometry" />
        </mxCell>
        <mxCell id="71I1blL-DGqBybGwyrJa-19" value="&lt;span style=&quot;font-size: 36px;&quot;&gt;Updateacl&lt;br&gt;service&lt;/span&gt;" style="rounded=1;whiteSpace=wrap;html=1;hachureGap=4;fontFamily=Nunito;fontSize=20;verticalAlign=middle;fillColor=#6666FF;strokeColor=#3333FF;fontSource=https%3A%2F%2Ffonts.googleapis.com%2Fcss%3Ffamily%3DNunito;" parent="71I1blL-DGqBybGwyrJa-18" vertex="1">
          <mxGeometry width="270" height="130" as="geometry" />
        </mxCell>
        <mxCell id="71I1blL-DGqBybGwyrJa-20" value="" style="group;fontFamily=Nunito;fontSource=https%3A%2F%2Ffonts.googleapis.com%2Fcss%3Ffamily%3DNunito;fillColor=none;strokeColor=none;" parent="71I1blL-DGqBybGwyrJa-1" vertex="1" connectable="0">
          <mxGeometry x="870" y="915" width="270" height="130" as="geometry" />
        </mxCell>
        <mxCell id="71I1blL-DGqBybGwyrJa-21" value="&lt;span style=&quot;font-size: 36px;&quot;&gt;Unprovision&lt;br&gt;service&lt;/span&gt;" style="rounded=1;whiteSpace=wrap;html=1;hachureGap=4;fontFamily=Nunito;fontSize=20;verticalAlign=middle;fillColor=#6666FF;strokeColor=#3333FF;fontSource=https%3A%2F%2Ffonts.googleapis.com%2Fcss%3Ffamily%3DNunito;" parent="71I1blL-DGqBybGwyrJa-20" vertex="1">
          <mxGeometry width="270" height="130" as="geometry" />
        </mxCell>
        <mxCell id="71I1blL-DGqBybGwyrJa-22" value="" style="group;fontFamily=Nunito;fontSource=https%3A%2F%2Ffonts.googleapis.com%2Fcss%3Ffamily%3DNunito;fillColor=none;strokeColor=none;" parent="71I1blL-DGqBybGwyrJa-1" vertex="1" connectable="0">
          <mxGeometry x="870" y="575" width="270" height="130" as="geometry" />
        </mxCell>
        <mxCell id="71I1blL-DGqBybGwyrJa-23" value="&lt;span style=&quot;font-size: 36px;&quot;&gt;Provision&lt;br&gt;service&lt;/span&gt;" style="rounded=1;whiteSpace=wrap;html=1;hachureGap=4;fontFamily=Nunito;fontSize=20;verticalAlign=middle;fillColor=#6666FF;strokeColor=#3333FF;fontSource=https%3A%2F%2Ffonts.googleapis.com%2Fcss%3Ffamily%3DNunito;" parent="71I1blL-DGqBybGwyrJa-22" vertex="1">
          <mxGeometry width="270" height="130" as="geometry" />
        </mxCell>
        <mxCell id="71I1blL-DGqBybGwyrJa-24" value="DOMAIN" style="text;strokeColor=none;fillColor=none;html=1;fontSize=30;fontStyle=1;verticalAlign=middle;align=center;" parent="71I1blL-DGqBybGwyrJa-1" vertex="1">
          <mxGeometry x="1230" y="1312" width="227" height="40" as="geometry" />
        </mxCell>
        <mxCell id="71I1blL-DGqBybGwyrJa-25" value="FEATURES" style="text;strokeColor=none;fillColor=none;html=1;fontSize=30;fontStyle=1;verticalAlign=middle;align=center;" parent="71I1blL-DGqBybGwyrJa-1" vertex="1">
          <mxGeometry x="891.5" y="1312" width="227" height="40" as="geometry" />
        </mxCell>
        <mxCell id="71I1blL-DGqBybGwyrJa-26" value="" style="group;fontFamily=Nunito;fontSource=https%3A%2F%2Ffonts.googleapis.com%2Fcss%3Ffamily%3DNunito;fillColor=none;strokeColor=none;" parent="71I1blL-DGqBybGwyrJa-1" vertex="1" connectable="0">
          <mxGeometry x="1237" y="530" width="220" height="110" as="geometry" />
        </mxCell>
        <mxCell id="71I1blL-DGqBybGwyrJa-27" value="&lt;span style=&quot;font-size: 36px;&quot;&gt;Validation&lt;br&gt;logic&lt;/span&gt;" style="rounded=1;whiteSpace=wrap;html=1;hachureGap=4;fontFamily=Nunito;fontSize=20;verticalAlign=middle;fillColor=#FF3399;strokeColor=#FF0080;fontSource=https%3A%2F%2Ffonts.googleapis.com%2Fcss%3Ffamily%3DNunito;" parent="71I1blL-DGqBybGwyrJa-26" vertex="1">
          <mxGeometry width="220" height="110" as="geometry" />
        </mxCell>
        <mxCell id="71I1blL-DGqBybGwyrJa-28" value="" style="group;fontFamily=Nunito;fontSource=https%3A%2F%2Ffonts.googleapis.com%2Fcss%3Ffamily%3DNunito;fillColor=none;strokeColor=none;" parent="71I1blL-DGqBybGwyrJa-1" vertex="1" connectable="0">
          <mxGeometry x="1237" y="847" width="220" height="110" as="geometry" />
        </mxCell>
        <mxCell id="71I1blL-DGqBybGwyrJa-29" value="&lt;span style=&quot;font-size: 36px;&quot;&gt;Status&lt;br&gt;logic&lt;/span&gt;" style="rounded=1;whiteSpace=wrap;html=1;hachureGap=4;fontFamily=Nunito;fontSize=20;verticalAlign=middle;fillColor=#FF3399;strokeColor=#FF0080;fontSource=https%3A%2F%2Ffonts.googleapis.com%2Fcss%3Ffamily%3DNunito;" parent="71I1blL-DGqBybGwyrJa-28" vertex="1">
          <mxGeometry width="220" height="110" as="geometry" />
        </mxCell>
        <mxCell id="71I1blL-DGqBybGwyrJa-30" value="" style="group;fontFamily=Nunito;fontSource=https%3A%2F%2Ffonts.googleapis.com%2Fcss%3Ffamily%3DNunito;fillColor=none;strokeColor=none;" parent="71I1blL-DGqBybGwyrJa-1" vertex="1" connectable="0">
          <mxGeometry x="1237" y="1140" width="220" height="110" as="geometry" />
        </mxCell>
        <mxCell id="71I1blL-DGqBybGwyrJa-31" value="&lt;span style=&quot;font-size: 36px;&quot;&gt;Updateacl&lt;br&gt;logic&lt;/span&gt;" style="rounded=1;whiteSpace=wrap;html=1;hachureGap=4;fontFamily=Nunito;fontSize=20;verticalAlign=middle;fillColor=#FF3399;strokeColor=#FF0080;fontSource=https%3A%2F%2Ffonts.googleapis.com%2Fcss%3Ffamily%3DNunito;" parent="71I1blL-DGqBybGwyrJa-30" vertex="1">
          <mxGeometry width="220" height="110" as="geometry" />
        </mxCell>
        <mxCell id="71I1blL-DGqBybGwyrJa-32" value="" style="group;fontFamily=Nunito;fontSource=https%3A%2F%2Ffonts.googleapis.com%2Fcss%3Ffamily%3DNunito;fillColor=none;strokeColor=none;" parent="71I1blL-DGqBybGwyrJa-1" vertex="1" connectable="0">
          <mxGeometry x="1237" y="1000" width="220" height="110" as="geometry" />
        </mxCell>
        <mxCell id="71I1blL-DGqBybGwyrJa-33" value="&lt;span style=&quot;font-size: 36px;&quot;&gt;Unprovision&lt;br&gt;logic&lt;/span&gt;" style="rounded=1;whiteSpace=wrap;html=1;hachureGap=4;fontFamily=Nunito;fontSize=20;verticalAlign=middle;fillColor=#FF3399;strokeColor=#FF0080;fontSource=https%3A%2F%2Ffonts.googleapis.com%2Fcss%3Ffamily%3DNunito;" parent="71I1blL-DGqBybGwyrJa-32" vertex="1">
          <mxGeometry width="220" height="110" as="geometry" />
        </mxCell>
        <mxCell id="71I1blL-DGqBybGwyrJa-34" value="" style="group;fontFamily=Nunito;fontSource=https%3A%2F%2Ffonts.googleapis.com%2Fcss%3Ffamily%3DNunito;fillColor=none;strokeColor=none;" parent="71I1blL-DGqBybGwyrJa-1" vertex="1" connectable="0">
          <mxGeometry x="1237" y="697" width="220" height="110" as="geometry" />
        </mxCell>
        <mxCell id="71I1blL-DGqBybGwyrJa-35" value="&lt;span style=&quot;font-size: 36px;&quot;&gt;Provision&lt;br&gt;logic&lt;/span&gt;" style="rounded=1;whiteSpace=wrap;html=1;hachureGap=4;fontFamily=Nunito;fontSize=20;verticalAlign=middle;fillColor=#FF3399;strokeColor=#FF0080;fontSource=https%3A%2F%2Ffonts.googleapis.com%2Fcss%3Ffamily%3DNunito;" parent="71I1blL-DGqBybGwyrJa-34" vertex="1">
          <mxGeometry width="220" height="110" as="geometry" />
        </mxCell>
        <mxCell id="71I1blL-DGqBybGwyrJa-36" value="" style="group;fontFamily=Nunito;fontSource=https%3A%2F%2Ffonts.googleapis.com%2Fcss%3Ffamily%3DNunito;fillColor=none;strokeColor=none;" parent="71I1blL-DGqBybGwyrJa-1" vertex="1" connectable="0">
          <mxGeometry x="1230" y="380" width="220" height="110" as="geometry" />
        </mxCell>
        <mxCell id="71I1blL-DGqBybGwyrJa-37" value="&lt;span style=&quot;font-size: 36px;&quot;&gt;Parsing&lt;br&gt;logic&lt;/span&gt;" style="rounded=1;whiteSpace=wrap;html=1;hachureGap=4;fontFamily=Nunito;fontSize=20;verticalAlign=middle;fillColor=#FF3399;strokeColor=#FF0080;fontSource=https%3A%2F%2Ffonts.googleapis.com%2Fcss%3Ffamily%3DNunito;" parent="71I1blL-DGqBybGwyrJa-36" vertex="1">
          <mxGeometry width="220" height="110" as="geometry" />
        </mxCell>
        <mxCell id="71I1blL-DGqBybGwyrJa-38" value="" style="group;fontFamily=Nunito;fontSource=https%3A%2F%2Ffonts.googleapis.com%2Fcss%3Ffamily%3DNunito;verticalAlign=top;" parent="71I1blL-DGqBybGwyrJa-1" vertex="1" connectable="0">
          <mxGeometry x="1980" y="677" width="300" height="300" as="geometry" />
        </mxCell>
        <mxCell id="71I1blL-DGqBybGwyrJa-39" value="&lt;span style=&quot;font-size: 36px;&quot;&gt;Destination infrastructure&lt;/span&gt;" style="rounded=1;whiteSpace=wrap;html=1;hachureGap=4;fontFamily=Nunito;fontSize=20;verticalAlign=top;fillColor=#00CC00;strokeColor=#00CC00;fontSource=https%3A%2F%2Ffonts.googleapis.com%2Fcss%3Ffamily%3DNunito;" parent="71I1blL-DGqBybGwyrJa-38" vertex="1">
          <mxGeometry width="300" height="300" as="geometry" />
        </mxCell>
        <mxCell id="71I1blL-DGqBybGwyrJa-40" value="&lt;font style=&quot;font-size: 24px;&quot;&gt;Component&lt;/font&gt;" style="rounded=1;whiteSpace=wrap;html=1;strokeWidth=2;fillWeight=4;hachureGap=8;hachureAngle=45;fillColor=#1ba1e2;" parent="71I1blL-DGqBybGwyrJa-38" vertex="1">
          <mxGeometry x="70" y="133" width="160" height="120" as="geometry" />
        </mxCell>
        <mxCell id="71I1blL-DGqBybGwyrJa-41" value="" style="group;fontFamily=Nunito;fontSource=https%3A%2F%2Ffonts.googleapis.com%2Fcss%3Ffamily%3DNunito;" parent="71I1blL-DGqBybGwyrJa-1" vertex="1" connectable="0">
          <mxGeometry x="1560" y="774" width="250" height="133" as="geometry" />
        </mxCell>
        <mxCell id="71I1blL-DGqBybGwyrJa-42" value="&lt;span style=&quot;font-size: 36px;&quot;&gt;Terraform&lt;br&gt;Proxy&lt;/span&gt;" style="rounded=1;whiteSpace=wrap;html=1;hachureGap=4;fontFamily=Nunito;fontSize=20;verticalAlign=middle;fillColor=#FF8000;strokeColor=#CC6600;fontSource=https%3A%2F%2Ffonts.googleapis.com%2Fcss%3Ffamily%3DNunito;" parent="71I1blL-DGqBybGwyrJa-41" vertex="1">
          <mxGeometry width="250" height="133" as="geometry" />
        </mxCell>
        <mxCell id="71I1blL-DGqBybGwyrJa-43" style="edgeStyle=orthogonalEdgeStyle;rounded=0;hachureGap=4;orthogonalLoop=1;jettySize=auto;html=1;exitX=1;exitY=0.5;exitDx=0;exitDy=0;fontFamily=Architects Daughter;fontSource=https%3A%2F%2Ffonts.googleapis.com%2Fcss%3Ffamily%3DArchitects%2BDaughter;fontSize=16;curved=1;entryX=0;entryY=0.5;entryDx=0;entryDy=0;" parent="71I1blL-DGqBybGwyrJa-1" source="71I1blL-DGqBybGwyrJa-2" target="71I1blL-DGqBybGwyrJa-40" edge="1">
          <mxGeometry relative="1" as="geometry">
            <mxPoint x="1960" y="453" as="sourcePoint" />
            <mxPoint x="2127" y="640" as="targetPoint" />
          </mxGeometry>
        </mxCell>
        <mxCell id="71I1blL-DGqBybGwyrJa-44" value="" style="edgeStyle=orthogonalEdgeStyle;rounded=0;hachureGap=4;orthogonalLoop=1;jettySize=auto;html=1;exitX=1;exitY=0.5;exitDx=0;exitDy=0;fontFamily=Architects Daughter;fontSource=https%3A%2F%2Ffonts.googleapis.com%2Fcss%3Ffamily%3DArchitects%2BDaughter;fontSize=16;curved=1;entryX=0;entryY=0.5;entryDx=0;entryDy=0;" parent="71I1blL-DGqBybGwyrJa-1" source="71I1blL-DGqBybGwyrJa-4" target="71I1blL-DGqBybGwyrJa-45" edge="1">
          <mxGeometry relative="1" as="geometry">
            <mxPoint x="320" y="640" as="sourcePoint" />
            <mxPoint x="487" y="827" as="targetPoint" />
          </mxGeometry>
        </mxCell>
        <mxCell id="71I1blL-DGqBybGwyrJa-45" value="" style="html=1;dashed=0;whitespace=wrap;fillColor=#2875E2;strokeColor=#ffffff;points=[[0.005,0.63,0],[0.1,0.2,0],[0.9,0.2,0],[0.5,0,0],[0.995,0.63,0],[0.72,0.99,0],[0.5,1,0],[0.28,0.99,0]];verticalLabelPosition=bottom;align=center;verticalAlign=top;shape=mxgraph.kubernetes.icon;prIcon=api;aspect=fixed;" parent="71I1blL-DGqBybGwyrJa-1" vertex="1">
          <mxGeometry x="440" y="779" width="100" height="96" as="geometry" />
        </mxCell>
      </root>
    </mxGraphModel>
  </diagram>
  <diagram name="Validation" id="XtTJMGvfypE6dU7Mrz-U">
    <mxGraphModel dx="2868" dy="1756" grid="1" gridSize="10" guides="1" tooltips="1" connect="1" arrows="1" fold="1" page="1" pageScale="1" pageWidth="2336" pageHeight="1654" math="0" shadow="0">
      <root>
        <mxCell id="HVblLh8guB176pFVsxsW-0" />
        <mxCell id="HVblLh8guB176pFVsxsW-1" parent="HVblLh8guB176pFVsxsW-0" />
        <mxCell id="HVblLh8guB176pFVsxsW-2" value="&lt;font style=&quot;font-size: 36px;&quot;&gt;Specific Provisioner&lt;br&gt;&lt;/font&gt;" style="rounded=1;whiteSpace=wrap;html=1;hachureGap=4;fontFamily=Nunito;fontSize=20;verticalAlign=top;fillColor=#99CCFF;strokeColor=#3399FF;fontSource=https%3A%2F%2Ffonts.googleapis.com%2Fcss%3Ffamily%3DNunito;" parent="HVblLh8guB176pFVsxsW-1" vertex="1">
          <mxGeometry x="650" y="492" width="1129" height="670" as="geometry" />
        </mxCell>
        <mxCell id="HVblLh8guB176pFVsxsW-3" value="" style="group;fontFamily=Nunito;fontSource=https%3A%2F%2Ffonts.googleapis.com%2Fcss%3Ffamily%3DNunito;" parent="HVblLh8guB176pFVsxsW-1" vertex="1" connectable="0">
          <mxGeometry x="88" y="759" width="300" height="160" as="geometry" />
        </mxCell>
        <mxCell id="HVblLh8guB176pFVsxsW-4" value="&lt;font style=&quot;font-size: 36px;&quot;&gt;Provisioning&lt;br&gt;Coordinator&lt;/font&gt;" style="rounded=1;whiteSpace=wrap;html=1;hachureGap=4;fontFamily=Nunito;fontSize=20;verticalAlign=middle;fillColor=#e1d5e7;strokeColor=#9673a6;fontSource=https%3A%2F%2Ffonts.googleapis.com%2Fcss%3Ffamily%3DNunito;" parent="HVblLh8guB176pFVsxsW-3" vertex="1">
          <mxGeometry width="300" height="160" as="geometry" />
        </mxCell>
        <mxCell id="HVblLh8guB176pFVsxsW-38" value="" style="group;fontFamily=Nunito;fontSource=https%3A%2F%2Ffonts.googleapis.com%2Fcss%3Ffamily%3DNunito;verticalAlign=middle;" parent="HVblLh8guB176pFVsxsW-1" vertex="1" connectable="0">
          <mxGeometry x="1940" y="839" width="292" height="190" as="geometry" />
        </mxCell>
        <mxCell id="HVblLh8guB176pFVsxsW-39" value="&lt;span style=&quot;font-size: 36px;&quot;&gt;Validation&lt;br&gt;result&lt;/span&gt;" style="rounded=1;whiteSpace=wrap;html=1;hachureGap=4;fontFamily=Nunito;fontSize=20;verticalAlign=middle;fillColor=#00CC00;strokeColor=#00CC00;fontSource=https%3A%2F%2Ffonts.googleapis.com%2Fcss%3Ffamily%3DNunito;" parent="HVblLh8guB176pFVsxsW-38" vertex="1">
          <mxGeometry width="292" height="190" as="geometry" />
        </mxCell>
        <mxCell id="HVblLh8guB176pFVsxsW-44" value="" style="edgeStyle=orthogonalEdgeStyle;rounded=0;hachureGap=4;orthogonalLoop=1;jettySize=auto;html=1;exitX=1;exitY=0.5;exitDx=0;exitDy=0;fontFamily=Architects Daughter;fontSource=https%3A%2F%2Ffonts.googleapis.com%2Fcss%3Ffamily%3DArchitects%2BDaughter;fontSize=16;curved=1;entryX=0;entryY=0.5;entryDx=0;entryDy=0;" parent="HVblLh8guB176pFVsxsW-1" source="HVblLh8guB176pFVsxsW-4" target="HVblLh8guB176pFVsxsW-45" edge="1">
          <mxGeometry relative="1" as="geometry">
            <mxPoint x="368" y="652" as="sourcePoint" />
            <mxPoint x="535" y="839" as="targetPoint" />
          </mxGeometry>
        </mxCell>
        <mxCell id="J6GLLs5GeDwEvy3qoooz-2" style="edgeStyle=orthogonalEdgeStyle;rounded=0;orthogonalLoop=1;jettySize=auto;html=1;exitX=0.995;exitY=0.63;exitDx=0;exitDy=0;exitPerimeter=0;entryX=0;entryY=0.5;entryDx=0;entryDy=0;" parent="HVblLh8guB176pFVsxsW-1" source="HVblLh8guB176pFVsxsW-45" target="J6GLLs5GeDwEvy3qoooz-1" edge="1">
          <mxGeometry relative="1" as="geometry" />
        </mxCell>
        <mxCell id="HVblLh8guB176pFVsxsW-45" value="" style="html=1;dashed=0;whitespace=wrap;fillColor=#2875E2;strokeColor=#ffffff;points=[[0.005,0.63,0],[0.1,0.2,0],[0.9,0.2,0],[0.5,0,0],[0.995,0.63,0],[0.72,0.99,0],[0.5,1,0],[0.28,0.99,0]];verticalLabelPosition=bottom;align=center;verticalAlign=top;shape=mxgraph.kubernetes.icon;prIcon=api;aspect=fixed;" parent="HVblLh8guB176pFVsxsW-1" vertex="1">
          <mxGeometry x="608" y="791" width="100" height="96" as="geometry" />
        </mxCell>
        <mxCell id="f_yAnTDAQmFwlXXdIVfN-0" value="&lt;font style=&quot;font-size: 24px;&quot;&gt;YAML&lt;br&gt;Descriptor&lt;/font&gt;" style="shape=document;whiteSpace=wrap;html=1;boundedLbl=1;" parent="HVblLh8guB176pFVsxsW-1" vertex="1">
          <mxGeometry x="438" y="682" width="150" height="150" as="geometry" />
        </mxCell>
        <mxCell id="f_yAnTDAQmFwlXXdIVfN-1" value="&lt;span style=&quot;font-size: 24px;&quot;&gt;CUE&lt;br&gt;Schema&lt;/span&gt;" style="shape=document;whiteSpace=wrap;html=1;boundedLbl=1;" parent="HVblLh8guB176pFVsxsW-1" vertex="1">
          <mxGeometry x="1018" y="1000" width="150" height="150" as="geometry" />
        </mxCell>
        <mxCell id="J6GLLs5GeDwEvy3qoooz-0" value="" style="group;fontFamily=Nunito;fontSource=https%3A%2F%2Ffonts.googleapis.com%2Fcss%3Ffamily%3DNunito;" parent="HVblLh8guB176pFVsxsW-1" vertex="1" connectable="0">
          <mxGeometry x="1070" y="786" width="250" height="133" as="geometry" />
        </mxCell>
        <mxCell id="J6GLLs5GeDwEvy3qoooz-1" value="&lt;span style=&quot;font-size: 36px;&quot;&gt;Validation&lt;br&gt;logic&lt;/span&gt;" style="rounded=1;whiteSpace=wrap;html=1;hachureGap=4;fontFamily=Nunito;fontSize=20;verticalAlign=middle;fillColor=#FF8000;strokeColor=#CC6600;fontSource=https%3A%2F%2Ffonts.googleapis.com%2Fcss%3Ffamily%3DNunito;" parent="J6GLLs5GeDwEvy3qoooz-0" vertex="1">
          <mxGeometry width="250" height="133" as="geometry" />
        </mxCell>
        <mxCell id="J6GLLs5GeDwEvy3qoooz-3" value="&lt;font style=&quot;font-size: 24px;&quot;&gt;YAML&lt;br&gt;Descriptor&lt;/font&gt;" style="shape=document;whiteSpace=wrap;html=1;boundedLbl=1;" parent="HVblLh8guB176pFVsxsW-1" vertex="1">
          <mxGeometry x="800" y="689" width="150" height="150" as="geometry" />
        </mxCell>
        <mxCell id="J6GLLs5GeDwEvy3qoooz-4" style="edgeStyle=orthogonalEdgeStyle;rounded=0;orthogonalLoop=1;jettySize=auto;html=1;exitX=0.5;exitY=1;exitDx=0;exitDy=0;" parent="HVblLh8guB176pFVsxsW-1" source="J6GLLs5GeDwEvy3qoooz-1" target="f_yAnTDAQmFwlXXdIVfN-1" edge="1">
          <mxGeometry relative="1" as="geometry" />
        </mxCell>
        <mxCell id="J6GLLs5GeDwEvy3qoooz-5" value="1 - LOAD" style="edgeLabel;html=1;align=center;verticalAlign=middle;resizable=0;points=[];fontSize=24;" parent="J6GLLs5GeDwEvy3qoooz-4" vertex="1" connectable="0">
          <mxGeometry x="0.1848" y="1" relative="1" as="geometry">
            <mxPoint y="1" as="offset" />
          </mxGeometry>
        </mxCell>
        <mxCell id="J6GLLs5GeDwEvy3qoooz-6" style="edgeStyle=orthogonalEdgeStyle;rounded=0;orthogonalLoop=1;jettySize=auto;html=1;exitX=1;exitY=0.75;exitDx=0;exitDy=0;entryX=0;entryY=0.5;entryDx=0;entryDy=0;" parent="HVblLh8guB176pFVsxsW-1" source="J6GLLs5GeDwEvy3qoooz-1" target="HVblLh8guB176pFVsxsW-39" edge="1">
          <mxGeometry relative="1" as="geometry" />
        </mxCell>
        <mxCell id="J6GLLs5GeDwEvy3qoooz-7" value="&lt;font style=&quot;font-size: 24px;&quot;&gt;5 - GENERATE&lt;/font&gt;" style="edgeLabel;html=1;align=center;verticalAlign=middle;resizable=0;points=[];" parent="J6GLLs5GeDwEvy3qoooz-6" vertex="1" connectable="0">
          <mxGeometry x="-0.1565" relative="1" as="geometry">
            <mxPoint x="1" as="offset" />
          </mxGeometry>
        </mxCell>
        <mxCell id="OwZDMse7Mr5ONSL1Usfs-0" value="" style="group;fontFamily=Nunito;fontSource=https%3A%2F%2Ffonts.googleapis.com%2Fcss%3Ffamily%3DNunito;fillColor=none;strokeColor=none;" parent="HVblLh8guB176pFVsxsW-1" vertex="1" connectable="0">
          <mxGeometry x="1340" y="590" width="270" height="130" as="geometry" />
        </mxCell>
        <mxCell id="OwZDMse7Mr5ONSL1Usfs-1" value="&lt;span style=&quot;font-size: 36px;&quot;&gt;Terraform&lt;br&gt;binary&lt;/span&gt;" style="rounded=1;whiteSpace=wrap;html=1;hachureGap=4;fontFamily=Nunito;fontSize=20;verticalAlign=middle;fillColor=#6666FF;strokeColor=#3333FF;fontSource=https%3A%2F%2Ffonts.googleapis.com%2Fcss%3Ffamily%3DNunito;" parent="OwZDMse7Mr5ONSL1Usfs-0" vertex="1">
          <mxGeometry width="270" height="130" as="geometry" />
        </mxCell>
        <mxCell id="OwZDMse7Mr5ONSL1Usfs-2" style="edgeStyle=orthogonalEdgeStyle;rounded=0;orthogonalLoop=1;jettySize=auto;html=1;exitX=1;exitY=0.25;exitDx=0;exitDy=0;entryX=0.5;entryY=1;entryDx=0;entryDy=0;" parent="HVblLh8guB176pFVsxsW-1" source="J6GLLs5GeDwEvy3qoooz-1" target="OwZDMse7Mr5ONSL1Usfs-1" edge="1">
          <mxGeometry relative="1" as="geometry" />
        </mxCell>
        <mxCell id="OwZDMse7Mr5ONSL1Usfs-3" value="&lt;font style=&quot;font-size: 24px;&quot;&gt;4 - VALIDATE&lt;/font&gt;" style="edgeLabel;html=1;align=center;verticalAlign=middle;resizable=0;points=[];" parent="OwZDMse7Mr5ONSL1Usfs-2" vertex="1" connectable="0">
          <mxGeometry x="-0.151" relative="1" as="geometry">
            <mxPoint x="1" as="offset" />
          </mxGeometry>
        </mxCell>
        <mxCell id="MaEXj_n-bqcbnOJJ83bk-0" value="&lt;span style=&quot;font-size: 24px;&quot;&gt;TF module&lt;/span&gt;" style="shape=document;whiteSpace=wrap;html=1;boundedLbl=1;" parent="HVblLh8guB176pFVsxsW-1" vertex="1">
          <mxGeometry x="1080" y="580" width="150" height="150" as="geometry" />
        </mxCell>
        <mxCell id="MaEXj_n-bqcbnOJJ83bk-1" style="edgeStyle=orthogonalEdgeStyle;rounded=0;orthogonalLoop=1;jettySize=auto;html=1;exitX=0.75;exitY=0;exitDx=0;exitDy=0;entryX=0.533;entryY=0.783;entryDx=0;entryDy=0;entryPerimeter=0;" parent="HVblLh8guB176pFVsxsW-1" source="J6GLLs5GeDwEvy3qoooz-1" target="MaEXj_n-bqcbnOJJ83bk-0" edge="1">
          <mxGeometry relative="1" as="geometry">
            <mxPoint x="1227" y="930" as="sourcePoint" />
            <mxPoint x="1135" y="750" as="targetPoint" />
          </mxGeometry>
        </mxCell>
        <mxCell id="MaEXj_n-bqcbnOJJ83bk-2" value="3 - LOAD" style="edgeLabel;html=1;align=center;verticalAlign=middle;resizable=0;points=[];fontSize=24;" parent="MaEXj_n-bqcbnOJJ83bk-1" vertex="1" connectable="0">
          <mxGeometry x="0.1848" y="1" relative="1" as="geometry">
            <mxPoint y="1" as="offset" />
          </mxGeometry>
        </mxCell>
        <mxCell id="MaEXj_n-bqcbnOJJ83bk-3" value="" style="group;fontFamily=Nunito;fontSource=https%3A%2F%2Ffonts.googleapis.com%2Fcss%3Ffamily%3DNunito;fillColor=none;strokeColor=none;" parent="HVblLh8guB176pFVsxsW-1" vertex="1" connectable="0">
          <mxGeometry x="1340" y="990" width="270" height="130" as="geometry" />
        </mxCell>
        <mxCell id="MaEXj_n-bqcbnOJJ83bk-4" value="&lt;span style=&quot;font-size: 36px;&quot;&gt;Cue&lt;br&gt;binary&lt;/span&gt;" style="rounded=1;whiteSpace=wrap;html=1;hachureGap=4;fontFamily=Nunito;fontSize=20;verticalAlign=middle;fillColor=#6666FF;strokeColor=#3333FF;fontSource=https%3A%2F%2Ffonts.googleapis.com%2Fcss%3Ffamily%3DNunito;" parent="MaEXj_n-bqcbnOJJ83bk-3" vertex="1">
          <mxGeometry width="270" height="130" as="geometry" />
        </mxCell>
        <mxCell id="MaEXj_n-bqcbnOJJ83bk-5" style="edgeStyle=orthogonalEdgeStyle;rounded=0;orthogonalLoop=1;jettySize=auto;html=1;exitX=1;exitY=1;exitDx=0;exitDy=0;entryX=0.5;entryY=0;entryDx=0;entryDy=0;" parent="HVblLh8guB176pFVsxsW-1" source="J6GLLs5GeDwEvy3qoooz-1" target="MaEXj_n-bqcbnOJJ83bk-4" edge="1">
          <mxGeometry relative="1" as="geometry">
            <mxPoint x="1330" y="829" as="sourcePoint" />
            <mxPoint x="1485" y="730" as="targetPoint" />
          </mxGeometry>
        </mxCell>
        <mxCell id="MaEXj_n-bqcbnOJJ83bk-6" value="&lt;font style=&quot;font-size: 24px;&quot;&gt;2 - VALIDATE&lt;/font&gt;" style="edgeLabel;html=1;align=center;verticalAlign=middle;resizable=0;points=[];" parent="MaEXj_n-bqcbnOJJ83bk-5" vertex="1" connectable="0">
          <mxGeometry x="-0.151" relative="1" as="geometry">
            <mxPoint x="1" as="offset" />
          </mxGeometry>
        </mxCell>
      </root>
    </mxGraphModel>
  </diagram>
  <diagram name="Provision and Unprovision" id="-3t7fG_TbnsPYjl1LMyY">
    <mxGraphModel dx="3187" dy="1951" grid="1" gridSize="10" guides="1" tooltips="1" connect="1" arrows="1" fold="1" page="1" pageScale="1" pageWidth="2336" pageHeight="1654" math="0" shadow="0">
      <root>
        <mxCell id="d_o9j7VcFMwUNReSPg8F-0" />
        <mxCell id="d_o9j7VcFMwUNReSPg8F-1" parent="d_o9j7VcFMwUNReSPg8F-0" />
        <mxCell id="d_o9j7VcFMwUNReSPg8F-2" value="&lt;font style=&quot;font-size: 36px;&quot;&gt;Specific Provisioner&lt;br&gt;&lt;/font&gt;" style="rounded=1;whiteSpace=wrap;html=1;hachureGap=4;fontFamily=Nunito;fontSize=20;verticalAlign=top;fillColor=#99CCFF;strokeColor=#3399FF;fontSource=https%3A%2F%2Ffonts.googleapis.com%2Fcss%3Ffamily%3DNunito;" parent="d_o9j7VcFMwUNReSPg8F-1" vertex="1">
          <mxGeometry x="662" y="110" width="1129" height="670" as="geometry" />
        </mxCell>
        <mxCell id="d_o9j7VcFMwUNReSPg8F-3" value="" style="group;fontFamily=Nunito;fontSource=https%3A%2F%2Ffonts.googleapis.com%2Fcss%3Ffamily%3DNunito;" parent="d_o9j7VcFMwUNReSPg8F-1" vertex="1" connectable="0">
          <mxGeometry x="100" y="377" width="300" height="160" as="geometry" />
        </mxCell>
        <mxCell id="d_o9j7VcFMwUNReSPg8F-4" value="&lt;font style=&quot;font-size: 36px;&quot;&gt;Provisioning&lt;br&gt;Coordinator&lt;/font&gt;" style="rounded=1;whiteSpace=wrap;html=1;hachureGap=4;fontFamily=Nunito;fontSize=20;verticalAlign=middle;fillColor=#e1d5e7;strokeColor=#9673a6;fontSource=https%3A%2F%2Ffonts.googleapis.com%2Fcss%3Ffamily%3DNunito;" parent="d_o9j7VcFMwUNReSPg8F-3" vertex="1">
          <mxGeometry width="300" height="160" as="geometry" />
        </mxCell>
        <mxCell id="d_o9j7VcFMwUNReSPg8F-7" value="" style="edgeStyle=orthogonalEdgeStyle;rounded=0;hachureGap=4;orthogonalLoop=1;jettySize=auto;html=1;exitX=1;exitY=0.5;exitDx=0;exitDy=0;fontFamily=Architects Daughter;fontSource=https%3A%2F%2Ffonts.googleapis.com%2Fcss%3Ffamily%3DArchitects%2BDaughter;fontSize=16;curved=1;entryX=0;entryY=0.5;entryDx=0;entryDy=0;" parent="d_o9j7VcFMwUNReSPg8F-1" source="d_o9j7VcFMwUNReSPg8F-4" target="d_o9j7VcFMwUNReSPg8F-9" edge="1">
          <mxGeometry relative="1" as="geometry">
            <mxPoint x="380" y="270" as="sourcePoint" />
            <mxPoint x="547" y="457" as="targetPoint" />
          </mxGeometry>
        </mxCell>
        <mxCell id="d_o9j7VcFMwUNReSPg8F-8" style="edgeStyle=orthogonalEdgeStyle;rounded=0;orthogonalLoop=1;jettySize=auto;html=1;exitX=0.995;exitY=0.63;exitDx=0;exitDy=0;exitPerimeter=0;entryX=0;entryY=0.5;entryDx=0;entryDy=0;" parent="d_o9j7VcFMwUNReSPg8F-1" source="d_o9j7VcFMwUNReSPg8F-9" target="d_o9j7VcFMwUNReSPg8F-13" edge="1">
          <mxGeometry relative="1" as="geometry" />
        </mxCell>
        <mxCell id="d_o9j7VcFMwUNReSPg8F-9" value="" style="html=1;dashed=0;whitespace=wrap;fillColor=#2875E2;strokeColor=#ffffff;points=[[0.005,0.63,0],[0.1,0.2,0],[0.9,0.2,0],[0.5,0,0],[0.995,0.63,0],[0.72,0.99,0],[0.5,1,0],[0.28,0.99,0]];verticalLabelPosition=bottom;align=center;verticalAlign=top;shape=mxgraph.kubernetes.icon;prIcon=api;aspect=fixed;" parent="d_o9j7VcFMwUNReSPg8F-1" vertex="1">
          <mxGeometry x="620" y="409" width="100" height="96" as="geometry" />
        </mxCell>
        <mxCell id="d_o9j7VcFMwUNReSPg8F-10" value="&lt;font style=&quot;font-size: 24px;&quot;&gt;YAML&lt;br&gt;Descriptor&lt;/font&gt;" style="shape=document;whiteSpace=wrap;html=1;boundedLbl=1;" parent="d_o9j7VcFMwUNReSPg8F-1" vertex="1">
          <mxGeometry x="450" y="300" width="150" height="150" as="geometry" />
        </mxCell>
        <mxCell id="d_o9j7VcFMwUNReSPg8F-11" value="&lt;span style=&quot;font-size: 24px;&quot;&gt;TF module&lt;/span&gt;" style="shape=document;whiteSpace=wrap;html=1;boundedLbl=1;" parent="d_o9j7VcFMwUNReSPg8F-1" vertex="1">
          <mxGeometry x="1153.5" y="218" width="150" height="150" as="geometry" />
        </mxCell>
        <mxCell id="d_o9j7VcFMwUNReSPg8F-12" value="" style="group;fontFamily=Nunito;fontSource=https%3A%2F%2Ffonts.googleapis.com%2Fcss%3Ffamily%3DNunito;" parent="d_o9j7VcFMwUNReSPg8F-1" vertex="1" connectable="0">
          <mxGeometry x="1103.5" y="538" width="250" height="133" as="geometry" />
        </mxCell>
        <mxCell id="d_o9j7VcFMwUNReSPg8F-13" value="&lt;span style=&quot;font-size: 36px;&quot;&gt;Provision&lt;br&gt;logic&lt;/span&gt;" style="rounded=1;whiteSpace=wrap;html=1;hachureGap=4;fontFamily=Nunito;fontSize=20;verticalAlign=middle;fillColor=#FF8000;strokeColor=#CC6600;fontSource=https%3A%2F%2Ffonts.googleapis.com%2Fcss%3Ffamily%3DNunito;" parent="d_o9j7VcFMwUNReSPg8F-12" vertex="1">
          <mxGeometry width="250" height="133" as="geometry" />
        </mxCell>
        <mxCell id="d_o9j7VcFMwUNReSPg8F-14" value="&lt;font style=&quot;font-size: 24px;&quot;&gt;YAML&lt;br&gt;Descriptor&lt;/font&gt;" style="shape=document;whiteSpace=wrap;html=1;boundedLbl=1;" parent="d_o9j7VcFMwUNReSPg8F-1" vertex="1">
          <mxGeometry x="860" y="307" width="150" height="150" as="geometry" />
        </mxCell>
        <mxCell id="d_o9j7VcFMwUNReSPg8F-15" style="edgeStyle=orthogonalEdgeStyle;rounded=0;orthogonalLoop=1;jettySize=auto;html=1;exitX=0.5;exitY=0;exitDx=0;exitDy=0;" parent="d_o9j7VcFMwUNReSPg8F-1" source="d_o9j7VcFMwUNReSPg8F-13" target="d_o9j7VcFMwUNReSPg8F-11" edge="1">
          <mxGeometry relative="1" as="geometry" />
        </mxCell>
        <mxCell id="d_o9j7VcFMwUNReSPg8F-16" value="LOAD" style="edgeLabel;html=1;align=center;verticalAlign=middle;resizable=0;points=[];fontSize=24;" parent="d_o9j7VcFMwUNReSPg8F-15" vertex="1" connectable="0">
          <mxGeometry x="0.1848" y="1" relative="1" as="geometry">
            <mxPoint y="1" as="offset" />
          </mxGeometry>
        </mxCell>
        <mxCell id="d_o9j7VcFMwUNReSPg8F-17" style="edgeStyle=orthogonalEdgeStyle;rounded=0;orthogonalLoop=1;jettySize=auto;html=1;exitX=1;exitY=0.5;exitDx=0;exitDy=0;entryX=0;entryY=0.5;entryDx=0;entryDy=0;" parent="d_o9j7VcFMwUNReSPg8F-1" source="ypxQr4JSg7Q2rfVy9Hlb-1" target="i_lFQp1R4y3S3HTlhpwK-2" edge="1">
          <mxGeometry relative="1" as="geometry">
            <mxPoint x="1942" y="445" as="targetPoint" />
          </mxGeometry>
        </mxCell>
        <mxCell id="JWW2T2C3AvXS43pVAhtx-1" value="&lt;font style=&quot;font-size: 24px;&quot;&gt;apply&lt;/font&gt;" style="edgeLabel;html=1;align=center;verticalAlign=middle;resizable=0;points=[];" parent="d_o9j7VcFMwUNReSPg8F-17" vertex="1" connectable="0">
          <mxGeometry x="-0.1398" y="1" relative="1" as="geometry">
            <mxPoint as="offset" />
          </mxGeometry>
        </mxCell>
        <mxCell id="ypxQr4JSg7Q2rfVy9Hlb-0" value="" style="group;fontFamily=Nunito;fontSource=https%3A%2F%2Ffonts.googleapis.com%2Fcss%3Ffamily%3DNunito;fillColor=none;strokeColor=none;" parent="d_o9j7VcFMwUNReSPg8F-1" vertex="1" connectable="0">
          <mxGeometry x="1492" y="380" width="270" height="130" as="geometry" />
        </mxCell>
        <mxCell id="ypxQr4JSg7Q2rfVy9Hlb-1" value="&lt;span style=&quot;font-size: 36px;&quot;&gt;Terraform&lt;br&gt;binary&lt;/span&gt;" style="rounded=1;whiteSpace=wrap;html=1;hachureGap=4;fontFamily=Nunito;fontSize=20;verticalAlign=middle;fillColor=#6666FF;strokeColor=#3333FF;fontSource=https%3A%2F%2Ffonts.googleapis.com%2Fcss%3Ffamily%3DNunito;" parent="ypxQr4JSg7Q2rfVy9Hlb-0" vertex="1">
          <mxGeometry width="270" height="130" as="geometry" />
        </mxCell>
        <mxCell id="i_lFQp1R4y3S3HTlhpwK-0" value="" style="group;fontFamily=Nunito;fontSource=https%3A%2F%2Ffonts.googleapis.com%2Fcss%3Ffamily%3DNunito;verticalAlign=top;" parent="d_o9j7VcFMwUNReSPg8F-1" vertex="1" connectable="0">
          <mxGeometry x="1970" y="251" width="300" height="300" as="geometry" />
        </mxCell>
        <mxCell id="i_lFQp1R4y3S3HTlhpwK-1" value="&lt;span style=&quot;font-size: 36px;&quot;&gt;Destination infrastructure&lt;/span&gt;" style="rounded=1;whiteSpace=wrap;html=1;hachureGap=4;fontFamily=Nunito;fontSize=20;verticalAlign=top;fillColor=#00CC00;strokeColor=#00CC00;fontSource=https%3A%2F%2Ffonts.googleapis.com%2Fcss%3Ffamily%3DNunito;" parent="i_lFQp1R4y3S3HTlhpwK-0" vertex="1">
          <mxGeometry width="300" height="300" as="geometry" />
        </mxCell>
        <mxCell id="i_lFQp1R4y3S3HTlhpwK-2" value="&lt;font style=&quot;font-size: 24px;&quot;&gt;Component&lt;/font&gt;" style="rounded=1;whiteSpace=wrap;html=1;strokeWidth=2;fillWeight=4;hachureGap=8;hachureAngle=45;fillColor=#1ba1e2;strokeColor=#0000FF;" parent="i_lFQp1R4y3S3HTlhpwK-0" vertex="1">
          <mxGeometry x="70" y="133" width="160" height="120" as="geometry" />
        </mxCell>
        <mxCell id="i_lFQp1R4y3S3HTlhpwK-3" style="edgeStyle=orthogonalEdgeStyle;rounded=0;orthogonalLoop=1;jettySize=auto;html=1;exitX=1;exitY=0.5;exitDx=0;exitDy=0;entryX=0;entryY=0.5;entryDx=0;entryDy=0;" parent="d_o9j7VcFMwUNReSPg8F-1" source="d_o9j7VcFMwUNReSPg8F-13" target="ypxQr4JSg7Q2rfVy9Hlb-1" edge="1">
          <mxGeometry relative="1" as="geometry" />
        </mxCell>
        <mxCell id="i_lFQp1R4y3S3HTlhpwK-5" value="&lt;font style=&quot;font-size: 36px;&quot;&gt;Specific Provisioner&lt;br&gt;&lt;/font&gt;" style="rounded=1;whiteSpace=wrap;html=1;hachureGap=4;fontFamily=Nunito;fontSize=20;verticalAlign=top;fillColor=#99CCFF;strokeColor=#3399FF;fontSource=https%3A%2F%2Ffonts.googleapis.com%2Fcss%3Ffamily%3DNunito;" parent="d_o9j7VcFMwUNReSPg8F-1" vertex="1">
          <mxGeometry x="660" y="870" width="1129" height="670" as="geometry" />
        </mxCell>
        <mxCell id="i_lFQp1R4y3S3HTlhpwK-6" value="" style="group;fontFamily=Nunito;fontSource=https%3A%2F%2Ffonts.googleapis.com%2Fcss%3Ffamily%3DNunito;" parent="d_o9j7VcFMwUNReSPg8F-1" vertex="1" connectable="0">
          <mxGeometry x="98" y="1137" width="300" height="160" as="geometry" />
        </mxCell>
        <mxCell id="i_lFQp1R4y3S3HTlhpwK-7" value="&lt;font style=&quot;font-size: 36px;&quot;&gt;Provisioning&lt;br&gt;Coordinator&lt;/font&gt;" style="rounded=1;whiteSpace=wrap;html=1;hachureGap=4;fontFamily=Nunito;fontSize=20;verticalAlign=middle;fillColor=#e1d5e7;strokeColor=#9673a6;fontSource=https%3A%2F%2Ffonts.googleapis.com%2Fcss%3Ffamily%3DNunito;" parent="i_lFQp1R4y3S3HTlhpwK-6" vertex="1">
          <mxGeometry width="300" height="160" as="geometry" />
        </mxCell>
        <mxCell id="i_lFQp1R4y3S3HTlhpwK-8" value="" style="edgeStyle=orthogonalEdgeStyle;rounded=0;hachureGap=4;orthogonalLoop=1;jettySize=auto;html=1;exitX=1;exitY=0.5;exitDx=0;exitDy=0;fontFamily=Architects Daughter;fontSource=https%3A%2F%2Ffonts.googleapis.com%2Fcss%3Ffamily%3DArchitects%2BDaughter;fontSize=16;curved=1;entryX=0;entryY=0.5;entryDx=0;entryDy=0;" parent="d_o9j7VcFMwUNReSPg8F-1" source="i_lFQp1R4y3S3HTlhpwK-7" target="i_lFQp1R4y3S3HTlhpwK-10" edge="1">
          <mxGeometry relative="1" as="geometry">
            <mxPoint x="378" y="1030" as="sourcePoint" />
            <mxPoint x="545" y="1217" as="targetPoint" />
          </mxGeometry>
        </mxCell>
        <mxCell id="i_lFQp1R4y3S3HTlhpwK-9" style="edgeStyle=orthogonalEdgeStyle;rounded=0;orthogonalLoop=1;jettySize=auto;html=1;exitX=0.995;exitY=0.63;exitDx=0;exitDy=0;exitPerimeter=0;entryX=0;entryY=0.5;entryDx=0;entryDy=0;" parent="d_o9j7VcFMwUNReSPg8F-1" source="i_lFQp1R4y3S3HTlhpwK-10" target="i_lFQp1R4y3S3HTlhpwK-14" edge="1">
          <mxGeometry relative="1" as="geometry" />
        </mxCell>
        <mxCell id="i_lFQp1R4y3S3HTlhpwK-10" value="" style="html=1;dashed=0;whitespace=wrap;fillColor=#2875E2;strokeColor=#ffffff;points=[[0.005,0.63,0],[0.1,0.2,0],[0.9,0.2,0],[0.5,0,0],[0.995,0.63,0],[0.72,0.99,0],[0.5,1,0],[0.28,0.99,0]];verticalLabelPosition=bottom;align=center;verticalAlign=top;shape=mxgraph.kubernetes.icon;prIcon=api;aspect=fixed;" parent="d_o9j7VcFMwUNReSPg8F-1" vertex="1">
          <mxGeometry x="618" y="1169" width="100" height="96" as="geometry" />
        </mxCell>
        <mxCell id="i_lFQp1R4y3S3HTlhpwK-11" value="&lt;font style=&quot;font-size: 24px;&quot;&gt;YAML&lt;br&gt;Descriptor&lt;/font&gt;" style="shape=document;whiteSpace=wrap;html=1;boundedLbl=1;" parent="d_o9j7VcFMwUNReSPg8F-1" vertex="1">
          <mxGeometry x="448" y="1060" width="150" height="150" as="geometry" />
        </mxCell>
        <mxCell id="i_lFQp1R4y3S3HTlhpwK-12" value="&lt;span style=&quot;font-size: 24px;&quot;&gt;TF module&lt;/span&gt;" style="shape=document;whiteSpace=wrap;html=1;boundedLbl=1;" parent="d_o9j7VcFMwUNReSPg8F-1" vertex="1">
          <mxGeometry x="1151.5" y="978" width="150" height="150" as="geometry" />
        </mxCell>
        <mxCell id="i_lFQp1R4y3S3HTlhpwK-13" value="" style="group;fontFamily=Nunito;fontSource=https%3A%2F%2Ffonts.googleapis.com%2Fcss%3Ffamily%3DNunito;" parent="d_o9j7VcFMwUNReSPg8F-1" vertex="1" connectable="0">
          <mxGeometry x="1101.5" y="1298" width="250" height="133" as="geometry" />
        </mxCell>
        <mxCell id="i_lFQp1R4y3S3HTlhpwK-14" value="&lt;span style=&quot;font-size: 36px;&quot;&gt;Unprovision logic&lt;/span&gt;" style="rounded=1;whiteSpace=wrap;html=1;hachureGap=4;fontFamily=Nunito;fontSize=20;verticalAlign=middle;fillColor=#FF8000;strokeColor=#CC6600;fontSource=https%3A%2F%2Ffonts.googleapis.com%2Fcss%3Ffamily%3DNunito;" parent="i_lFQp1R4y3S3HTlhpwK-13" vertex="1">
          <mxGeometry width="250" height="133" as="geometry" />
        </mxCell>
        <mxCell id="i_lFQp1R4y3S3HTlhpwK-15" value="&lt;font style=&quot;font-size: 24px;&quot;&gt;YAML&lt;br&gt;Descriptor&lt;/font&gt;" style="shape=document;whiteSpace=wrap;html=1;boundedLbl=1;" parent="d_o9j7VcFMwUNReSPg8F-1" vertex="1">
          <mxGeometry x="858" y="1067" width="150" height="150" as="geometry" />
        </mxCell>
        <mxCell id="i_lFQp1R4y3S3HTlhpwK-16" style="edgeStyle=orthogonalEdgeStyle;rounded=0;orthogonalLoop=1;jettySize=auto;html=1;exitX=0.5;exitY=0;exitDx=0;exitDy=0;" parent="d_o9j7VcFMwUNReSPg8F-1" source="i_lFQp1R4y3S3HTlhpwK-14" target="i_lFQp1R4y3S3HTlhpwK-12" edge="1">
          <mxGeometry relative="1" as="geometry" />
        </mxCell>
        <mxCell id="i_lFQp1R4y3S3HTlhpwK-17" value="LOAD" style="edgeLabel;html=1;align=center;verticalAlign=middle;resizable=0;points=[];fontSize=24;" parent="i_lFQp1R4y3S3HTlhpwK-16" vertex="1" connectable="0">
          <mxGeometry x="0.1848" y="1" relative="1" as="geometry">
            <mxPoint y="1" as="offset" />
          </mxGeometry>
        </mxCell>
        <mxCell id="i_lFQp1R4y3S3HTlhpwK-18" value="&lt;font style=&quot;font-size: 24px;&quot;&gt;destroy&lt;/font&gt;" style="edgeStyle=orthogonalEdgeStyle;rounded=0;orthogonalLoop=1;jettySize=auto;html=1;exitX=1;exitY=0.5;exitDx=0;exitDy=0;entryX=0;entryY=0.5;entryDx=0;entryDy=0;" parent="d_o9j7VcFMwUNReSPg8F-1" source="i_lFQp1R4y3S3HTlhpwK-21" target="i_lFQp1R4y3S3HTlhpwK-24" edge="1">
          <mxGeometry relative="1" as="geometry">
            <mxPoint x="1940" y="1205" as="targetPoint" />
          </mxGeometry>
        </mxCell>
        <mxCell id="i_lFQp1R4y3S3HTlhpwK-20" value="" style="group;fontFamily=Nunito;fontSource=https%3A%2F%2Ffonts.googleapis.com%2Fcss%3Ffamily%3DNunito;fillColor=none;strokeColor=none;" parent="d_o9j7VcFMwUNReSPg8F-1" vertex="1" connectable="0">
          <mxGeometry x="1490" y="1140" width="270" height="130" as="geometry" />
        </mxCell>
        <mxCell id="i_lFQp1R4y3S3HTlhpwK-21" value="&lt;span style=&quot;font-size: 36px;&quot;&gt;Terraform&lt;br&gt;binary&lt;/span&gt;" style="rounded=1;whiteSpace=wrap;html=1;hachureGap=4;fontFamily=Nunito;fontSize=20;verticalAlign=middle;fillColor=#6666FF;strokeColor=#3333FF;fontSource=https%3A%2F%2Ffonts.googleapis.com%2Fcss%3Ffamily%3DNunito;" parent="i_lFQp1R4y3S3HTlhpwK-20" vertex="1">
          <mxGeometry width="270" height="130" as="geometry" />
        </mxCell>
        <mxCell id="i_lFQp1R4y3S3HTlhpwK-22" value="" style="group;fontFamily=Nunito;fontSource=https%3A%2F%2Ffonts.googleapis.com%2Fcss%3Ffamily%3DNunito;verticalAlign=top;" parent="d_o9j7VcFMwUNReSPg8F-1" vertex="1" connectable="0">
          <mxGeometry x="1970" y="1012" width="300" height="300" as="geometry" />
        </mxCell>
        <mxCell id="i_lFQp1R4y3S3HTlhpwK-23" value="&lt;span style=&quot;font-size: 36px;&quot;&gt;Destination infrastructure&lt;/span&gt;" style="rounded=1;whiteSpace=wrap;html=1;hachureGap=4;fontFamily=Nunito;fontSize=20;verticalAlign=top;fillColor=#00CC00;strokeColor=#00CC00;fontSource=https%3A%2F%2Ffonts.googleapis.com%2Fcss%3Ffamily%3DNunito;" parent="i_lFQp1R4y3S3HTlhpwK-22" vertex="1">
          <mxGeometry width="300" height="300" as="geometry" />
        </mxCell>
        <mxCell id="i_lFQp1R4y3S3HTlhpwK-24" value="&lt;font style=&quot;font-size: 24px;&quot;&gt;Component&lt;/font&gt;" style="rounded=1;whiteSpace=wrap;html=1;strokeWidth=2;fillWeight=4;hachureGap=8;hachureAngle=45;fillColor=#CC0000;strokeColor=#990000;" parent="i_lFQp1R4y3S3HTlhpwK-22" vertex="1">
          <mxGeometry x="70" y="133" width="160" height="120" as="geometry" />
        </mxCell>
        <mxCell id="i_lFQp1R4y3S3HTlhpwK-25" style="edgeStyle=orthogonalEdgeStyle;rounded=0;orthogonalLoop=1;jettySize=auto;html=1;exitX=1;exitY=0.5;exitDx=0;exitDy=0;entryX=0;entryY=0.5;entryDx=0;entryDy=0;" parent="d_o9j7VcFMwUNReSPg8F-1" source="i_lFQp1R4y3S3HTlhpwK-14" target="i_lFQp1R4y3S3HTlhpwK-21" edge="1">
          <mxGeometry relative="1" as="geometry" />
        </mxCell>
        <mxCell id="i_lFQp1R4y3S3HTlhpwK-33" value="&lt;font style=&quot;font-size: 36px;&quot;&gt;Provisioning operation&lt;/font&gt;" style="text;strokeColor=none;fillColor=none;html=1;fontSize=24;fontStyle=1;verticalAlign=middle;align=center;" parent="d_o9j7VcFMwUNReSPg8F-1" vertex="1">
          <mxGeometry x="310" y="190" width="100" height="40" as="geometry" />
        </mxCell>
        <mxCell id="i_lFQp1R4y3S3HTlhpwK-34" value="&lt;font style=&quot;font-size: 36px;&quot;&gt;Unprovisioning operation&lt;/font&gt;" style="text;strokeColor=none;fillColor=none;html=1;fontSize=24;fontStyle=1;verticalAlign=middle;align=center;" parent="d_o9j7VcFMwUNReSPg8F-1" vertex="1">
          <mxGeometry x="310" y="920" width="100" height="40" as="geometry" />
        </mxCell>
      </root>
    </mxGraphModel>
  </diagram>
</mxfile>
